<svg width="720" height="720" viewBox="0 0 720 720" xmlns="http://www.w3.org/2000/svg"><rect width="720" height="720" fill="#ebe5e7"/><path d="M 0,720 C 0,720 0,120 0,120 C 44.14358974358973,127.08717948717948 88.28717948717946,134.17435897435897 131,139 C 173.71282051282054,143.82564102564103 214.9948717948718,146.3897435897436 255,130 C 295.0051282051282,113.6102564102564 333.73333333333335,78.26666666666667 366,83 C 398.26666666666665,87.73333333333333 424.07179487179485,132.54358974358976 460,137 C 495.92820512820515,141.45641025641024 541.9794871794873,105.55897435897435 587,96 C 632.0205128205127,86.44102564102565 676.0102564102564,103.22051282051282 720,120 C 720,120 720,720 720,720 Z" fill="#2430db" opacity="0.09999999999999999"/><path d="M 0,720 C 0,720 0,240 0,240 C 29.61794871794872,228.13846153846154 59.23589743589744,216.27692307692308 101,223 C 142.76410256410256,229.72307692307692 196.674358974359,255.03076923076924 246,247 C 295.325641025641,238.96923076923076 340.06666666666666,197.6 379,206 C 417.93333333333334,214.4 451.0589743589745,272.5692307692308 487,278 C 522.9410256410255,283.4307692307692 561.6974358974359,236.12307692307692 601,221 C 640.3025641025641,205.87692307692308 680.1512820512821,222.93846153846152 720,240 C 720,240 720,720 720,720 Z" fill="#2430db" opacity="0.19999999999999998"/><path d="M 0,720 C 0,720 0,360 0,360 C 29.22307692307693,376.9025641025641 58.44615384615386,393.8051282051282 98,379 C 137.55384615384614,364.1948717948718 187.43846153846152,317.68205128205125 233,318 C 278.5615384615385,318.31794871794875 319.8,365.4666666666667 356,374 C 392.2,382.5333333333333 423.3615384615385,352.451282051282 462,353 C 500.6384615384615,353.548717948718 546.7538461538462,384.72820512820516 591,391 C 635.2461538461538,397.27179487179484 677.623076923077,378.6358974358974 720,360 C 720,360 720,720 720,720 Z" fill="#2430db" opacity="0.3"/><path d="M 0,720 C 0,720 0,480 0,480 C 28.289743589743594,499.91282051282053 56.57948717948719,519.8256410256411 103,508 C 149.4205128205128,496.174358974359 213.97179487179488,452.61025641025634 260,457 C 306.0282051282051,461.38974358974366 333.53333333333325,513.7333333333335 368,516 C 402.46666666666675,518.2666666666665 443.89487179487185,470.45641025641027 478,467 C 512.1051282051282,463.54358974358973 538.8871794871794,504.4410256410256 578,514 C 617.1128205128206,523.5589743589744 668.5564102564103,501.7794871794872 720,480 C 720,480 720,720 720,720 Z" fill="#2430db" opacity="0.39999999999999997"/><path d="M 0,720 C 0,720 0,600 0,600 C 30.917948717948704,614.5 61.83589743589741,629 105,618 C 148.1641025641026,607 203.57435897435897,570.5 251,562 C 298.425641025641,553.5 337.8666666666667,573 376,582 C 414.1333333333333,591 450.9589743589744,589.5 490,595 C 529.0410256410256,600.5 570.2974358974359,613 609,615 C 647.7025641025641,617 683.851282051282,608.5 720,600 C 720,600 720,720 720,720 Z" fill="#2430db" opacity="0.49999999999999994"/></svg>