<svg width="1920" height="1080" viewBox="0 0 1920 1080" xmlns="http://www.w3.org/2000/svg"><rect width="1920" height="1080" fill="#ebe5e7"/><path d="M 0,1080 C 0,1080 0,180 0,180 C 84.45384615384617,139.33846153846153 168.90769230769234,98.67692307692306 291,119 C 413.09230769230766,139.32307692307694 572.8230769230769,220.63076923076923 680,230 C 787.1769230769231,239.36923076923077 841.8,176.79999999999998 940,145 C 1038.2,113.20000000000002 1179.976923076923,112.16923076923078 1282,140 C 1384.023076923077,167.83076923076922 1446.2923076923078,224.5230769230769 1546,236 C 1645.7076923076922,247.4769230769231 1782.853846153846,213.73846153846154 1920,180 C 1920,180 1920,1080 1920,1080 Z" fill="#2430db" opacity="0.09999999999999999"/><path d="M 0,1080 C 0,1080 0,360 0,360 C 123.34358974358975,337.0820512820512 246.6871794871795,314.1641025641025 347,304 C 447.3128205128205,293.8358974358975 524.5948717948718,296.4256410256411 633,313 C 741.4051282051282,329.5743589743589 880.9333333333334,360.1333333333333 1006,370 C 1131.0666666666666,379.8666666666667 1241.6717948717949,369.04102564102567 1338,377 C 1434.3282051282051,384.95897435897433 1516.3794871794871,411.7025641025641 1611,412 C 1705.6205128205129,412.2974358974359 1812.8102564102564,386.14871794871794 1920,360 C 1920,360 1920,1080 1920,1080 Z" fill="#2430db" opacity="0.19999999999999998"/><path d="M 0,1080 C 0,1080 0,540 0,540 C 84.65897435897438,529.5230769230769 169.31794871794875,519.0461538461539 264,517 C 358.68205128205125,514.9538461538461 463.3871794871794,521.3384615384615 602,534 C 740.6128205128206,546.6615384615385 913.1333333333334,565.5999999999999 1010,551 C 1106.8666666666666,536.4000000000001 1128.0794871794872,488.26153846153846 1225,479 C 1321.9205128205128,469.73846153846154 1494.548717948718,499.3538461538461 1623,516 C 1751.451282051282,532.6461538461539 1835.725641025641,536.323076923077 1920,540 C 1920,540 1920,1080 1920,1080 Z" fill="#2430db" opacity="0.3"/><path d="M 0,1080 C 0,1080 0,720 0,720 C 118.13333333333335,741.2358974358974 236.2666666666667,762.4717948717949 336,754 C 435.7333333333333,745.5282051282051 517.0666666666666,707.348717948718 631,685 C 744.9333333333334,662.651282051282 891.4666666666667,656.1333333333332 994,678 C 1096.5333333333333,699.8666666666668 1155.0666666666668,750.1179487179487 1262,774 C 1368.9333333333332,797.8820512820513 1524.2666666666667,795.3948717948718 1642,782 C 1759.7333333333333,768.6051282051282 1839.8666666666668,744.302564102564 1920,720 C 1920,720 1920,1080 1920,1080 Z" fill="#2430db" opacity="0.39999999999999997"/><path d="M 0,1080 C 0,1080 0,900 0,900 C 139.89487179487176,918.248717948718 279.7897435897435,936.4974358974359 375,938 C 470.2102564102565,939.5025641025641 520.7358974358975,924.2589743589742 618,893 C 715.2641025641025,861.7410256410258 859.2666666666667,814.4666666666668 966,832 C 1072.7333333333333,849.5333333333332 1142.197435897436,931.8743589743589 1240,958 C 1337.802564102564,984.1256410256411 1463.9435897435897,954.0358974358975 1582,935 C 1700.0564102564103,915.9641025641025 1810.0282051282052,907.9820512820513 1920,900 C 1920,900 1920,1080 1920,1080 Z" fill="#2430db" opacity="0.49999999999999994"/></svg>